<svg data-v-0dd9719b="" version="1.0" xmlns="http://www.w3.org/2000/svg" xmlns:xlink="http://www.w3.org/1999/xlink" width="100%" height="100%" viewBox="0 0 340.000000 250.000000" preserveAspectRatio="xMidYMid meet" color-interpolation-filters="sRGB" style="margin: auto;"> <rect data-v-0dd9719b="" x="0" y="0" width="100%" height="100%" fill="#fff" fill-opacity="1" class="background"></rect> <rect data-v-0dd9719b="" x="0" y="0" width="100%" height="100%" fill="url(#watermark)" fill-opacity="1" class="watermarklayer"></rect> <g data-v-0dd9719b="" fill="#00476e" class="icon-text-wrapper icon-svg-group iconsvg" transform="translate(47.050743103027344,97.09747505187988)"><g class="iconsvg-imagesvg" transform="translate(0,2.6497859954833984)"><g><rect fill="#00476e" fill-opacity="0" stroke-width="2" x="0" y="0" width="60" height="50.50547563531679" class="image-rect"></rect> <svg x="0" y="0" width="60" height="50.50547563531679" filtersec="colorsb8711242654" class="image-svg-svg primary" style="overflow: visible;"><svg version="1.1" id="图层_1" xmlns="http://www.w3.org/2000/svg" xmlns:xlink="http://www.w3.org/1999/xlink" x="0px" y="0px" viewBox="0.5699999928474426 0.550000011920929 124.43000030517578 104.73999786376953" enable-background="new 0 0 126 107" xml:space="preserve">
<g>
	<path fill="#00476E" d="M46.88,0.55L125,105.29H77.09L62.81,86.1l-14.33,19.19H0.57l49.09-65.81l7.92,10.64L25.96,92.55h16.15
		l20.7-27.79l20.7,27.79h16.11L38.97,11.19L46.88,0.55z M67.99,14.87L78.68,0.55l7.92,10.64L75.96,25.52L67.99,14.87z"></path>
</g>
</svg></svg> <!----></g></g> <g transform="translate(67,0)"><g data-gra="path-name" fill-rule="" class="tp-name iconsvg-namesvg" transform="translate(0,0)"><g transform="scale(1)"><g><path d="M27.29-14.81L31.73-14.81 31.73-19.6 27.29-19.6 27.29-14.81ZM27.29-8.83L31.64-8.83 34.41-11.91Q33.57-11.78 32.78-11.78L32.78-11.78 31.73-11.78 31.73-13.54 27.29-13.54 27.29-8.83ZM18.24-7.56L18.24-0.04 31.77-0.04 31.77-7.56 18.24-7.56ZM31.73-25.27L27.29-25.27 27.29-20.87 31.73-20.87 31.73-25.27ZM37.88-20.87L38.28-20.87 40.52-24.21Q43.02-21.93 44.43-20.35L44.43-20.35Q44.21-19.6 43.24-19.6L43.24-19.6 37.88-19.6 37.88-13.1Q37.84-12.92 36.74-12.52 35.64-12.13 34.45-11.95L34.45-11.95 39.68-8.04Q39.29-7.43 38.01-7.16L38.01-7.16 38.01 2.59Q38.01 2.72 37.46 2.99 36.91 3.25 35.66 3.52 34.41 3.78 32.92 3.78L32.92 3.78 31.77 3.78 31.77 1.23 18.24 1.23 18.24 2.86Q18.24 3.08 17.69 3.36 17.14 3.65 15.97 3.89 14.81 4.13 13.4 4.13L13.4 4.13 12.35 4.13 12.35-11.21 18.68-8.83 21.09-8.83 21.09-13.54 12.08-13.54 11.69-14.81 21.09-14.81 21.09-19.6 11.38-19.6Q11.38-16.83 11.23-14.72 11.07-12.61 10.48-9.76 9.89-6.9 8.88-4.64 7.87-2.37 5.98 0.02 4.09 2.42 1.45 4.22L1.45 4.22 1.05 3.96Q2.42 1.41 3.3-1.63 4.17-4.66 4.53-8.13 4.88-11.6 4.99-14.17 5.1-16.74 5.1-20.57L5.1-20.57 5.1-34.85 12.35-32.39 20.65-32.39 20.65-38.5 28.56-37.88Q28.48-36.87 26.94-36.65L26.94-36.65 26.94-32.39 35.24-32.39 38.32-36.69Q41.84-33.79 43.86-31.86L43.86-31.86Q43.68-31.16 42.63-31.16L42.63-31.16 11.38-31.16 11.38-20.87 21.09-20.87 21.09-25.27 12.61-25.27 12.22-26.54 21.09-26.54 21.09-30.76 28.7-30.15Q28.56-29.18 27.29-28.96L27.29-28.96 27.29-26.54 31.29-26.54 33.97-29.58 39.68-25.22Q39.16-24.52 37.88-24.3L37.88-24.3 37.88-20.87ZM78.97-3.08L78.97-27.86 87.58-27.07Q87.45-26.02 85.91-25.8L85.91-25.8 85.91 1.54Q85.91 2.02 84 2.75 82.09 3.47 80.24 3.47L80.24 3.47 78.97 3.47 78.97-1.8 55.81-1.8 55.81 2.11Q55.81 2.37 55 2.83 54.18 3.3 52.82 3.67 51.46 4.04 50.23 4.04L50.23 4.04 49 4.04 49-27.73 57.48-26.94Q57.35-25.93 55.81-25.66L55.81-25.66 55.81-3.08 63.81-3.08 63.81-37.49 72.42-36.74Q72.29-35.64 70.75-35.42L70.75-35.42 70.75-3.08 78.97-3.08ZM104.55-14.9L99.67-14.9 99.67-7.38Q100.2-7.47 101.16-7.62 102.13-7.78 102.96-7.93 103.8-8.09 104.55-8.22L104.55-8.22 104.55-14.9ZM104.55-25.22L104.55-33 99.67-33 99.67-25.22 104.55-25.22ZM99.67-16.17L104.55-16.17 104.55-23.99 99.67-23.99 99.67-16.17ZM125.6-26.41L128.85-29.66 134.12-24.96Q133.55-24.35 132.1-24.08L132.1-24.08Q131.75-10.81 131-5.43 130.25-0.04 128.32 1.76L128.32 1.76Q125.95 4.04 121.77 4L121.77 4Q121.77 0.83 120.98-0.18L120.98-0.18Q120.01-1.54 117.03-2.29L117.03-2.29 117.03-2.86Q120.94-2.55 122.12-2.55L122.12-2.55Q123.09-2.55 123.66-3.12L123.66-3.12Q124.76-4.09 125.29-9.12 125.82-14.15 126.08-25.14L126.08-25.14 121.86-25.14Q121.73-21.49 121.4-18.74 121.07-16 120.34-13.05 119.62-10.11 118.34-7.8 117.07-5.49 115.18-3.25 113.29-1.01 110.5 0.86 107.71 2.72 104.02 4.31L104.02 4.31 103.62 3.69Q110.57-1.63 113.2-9.14L113.2-9.14Q106.92-5.14 94.66 0.35L94.66 0.35Q94.17 1.36 93.3 1.58L93.3 1.58 90.44-5.93Q90.92-6.02 92.18-6.2 93.43-6.37 94.04-6.46L94.04-6.46 94.04-37 100.28-34.23 104.11-34.23 106.92-37.22 112.19-33Q111.62-32.26 110.39-32.04L110.39-32.04 110.39-9.27 113.51-9.89Q115.31-15.42 115.53-25.14L115.53-25.14 111.05-25.14 110.65-26.41 115.53-26.41 115.53-38.06 123.71-37.35Q123.57-36.3 122.04-36.04L122.04-36.04Q121.9-26.85 121.9-26.41L121.9-26.41 125.6-26.41ZM157.37-37.92L157.37-37.92 157.76-38.14Q163.61-36.65 164.93-33.35L164.93-33.35Q165.81-31.2 164.4-29.71L164.4-29.71Q163.08-28.26 161.15-29.09L161.15-29.09Q160.58-29.31 160.05-29.79L160.05-29.79Q159.92-33.88 157.37-37.92ZM144.14-16.17L144.14-9.27 147.88-9.93 147.88-16.17 144.14-16.17ZM147.88-26.1L147.88-33.53 144.14-33.53 144.14-26.1 147.88-26.1ZM147.88-24.83L144.14-24.83 144.14-17.4 147.88-17.4 147.88-24.83ZM153.54-8.79L153.54-8.79 153.54 2.64Q153.5 2.86 153 3.21 152.49 3.56 151.37 3.89 150.25 4.22 148.89 4.22L148.89 4.22 147.88 4.22 147.88-5.84Q144.89-4.31 139.31-1.8L139.31-1.8Q138.91-0.79 137.99-0.57L137.99-0.57 135.62-7.82Q136.05-7.87 137.18-8.04 138.3-8.22 138.65-8.26L138.65-8.26 138.65-33.53 136.14-33.53 135.75-34.8 149.99-34.8 152.97-38.5Q156.31-35.99 158.33-34.23L158.33-34.23Q158.16-33.53 157.1-33.53L157.1-33.53 153.54-33.53 153.54-11.07Q154.25-11.21 155.85-11.54 157.46-11.87 158.33-12.04L158.33-12.04 158.47-11.6Q156.58-10.46 153.54-8.79ZM177.67-15.47L177.67-15.47 169.23-15.47Q170.46-10.77 173.23-7.32 176-3.87 179.69-2.42L179.69-2.42 179.65-1.93Q178.02-1.45 176.81 0.09 175.61 1.63 175.08 4L175.08 4Q172.05 1.1 170.64-3.19 169.23-7.47 168.66-14.72L168.66-14.72Q168.49-12.48 168.02-10.55 167.56-8.61 166.46-6.42 165.37-4.22 163.74-2.4 162.11-0.57 159.43 1.19 156.75 2.94 153.28 4.22L153.28 4.22 152.97 3.87Q158.07-0.04 160.11-4.83 162.16-9.62 162.47-15.47L162.47-15.47 154.42-15.47 154.07-16.74 162.51-16.74 162.51-26.5 155.92-26.5 155.57-27.77 166.38-27.77Q167.83-33 168.27-38.41L168.27-38.41 176.31-36.65Q176.04-35.68 174.64-35.68L174.64-35.68Q171.74-31.55 167.56-27.77L167.56-27.77 170.42-27.77 173.23-31.51Q176.44-29 178.37-27.25L178.37-27.25Q178.15-26.5 177.1-26.5L177.1-26.5 168.79-26.5 168.79-18.24Q168.79-17.23 168.75-16.74L168.75-16.74 170.6-16.74 173.58-20.79Q176.92-18.06 178.95-16.22L178.95-16.22Q178.73-15.47 177.67-15.47Z" transform="translate(-1.0499999523162842, 38.5)"></path></g> <!----> <!----> <!----> <!----> <!----> <!----> <!----></g></g> <g data-gra="path-slogan" fill-rule="" class="tp-slogan iconsvg-slogansvg" fill="#00476e" transform="translate(-0.2550048828125,48.810001373291016)"><rect width="0"></rect> <rect x="182.15000915527344" width="0"></rect> <g transform="translate(0,0)"><g transform="scale(1)"><path d="M2.42-5.93L0.15-5.93L0.15-6.70L5.57-6.70L5.57-5.93L3.30-5.93L3.30 0L2.42 0L2.42-5.93ZM10.80 0L10.14-1.94L7.43-1.94L6.74 0L5.82 0L8.35-6.70L9.38-6.70L11.79 0L10.80 0ZM8.79-5.71L7.73-2.75L9.81-2.75L8.83-5.71L8.79-5.71ZM13.70-6.70L17.07-1.28L17.07-6.70L17.95-6.70L17.95 0L16.92 0L13.51-5.42L13.48-5.42L13.48 0L12.60 0L12.60-6.70L13.70-6.70ZM24.35-2.82L22.30-2.82L22.30-3.59L25.23-3.59L25.23 0L24.65 0L24.43-0.84Q23.66 0.07 22.23 0.11L22.23 0.11Q20.87 0.11 20.14-0.59L20.14-0.59Q19.04-1.61 19.08-3.41L19.08-3.41Q19.34-6.74 22.27-6.89L22.27-6.89Q24.76-6.74 25.12-4.69L25.12-4.69L24.24-4.69Q23.88-6.08 22.23-6.12L22.23-6.12Q20.14-5.97 20.03-3.37L20.03-3.37Q20.03-0.59 22.27-0.59L22.27-0.59Q23.07-0.59 23.66-1.03L23.66-1.03Q24.39-1.61 24.35-2.82L24.35-2.82ZM31.53-4.76L31.53-4.76L30.69-4.76Q30.62-6.04 29.01-6.12L29.01-6.12Q27.50-6.08 27.50-4.94L27.50-4.94Q27.50-4.21 28.31-4.10L28.31-4.10L30.21-3.66Q31.72-3.30 31.72-1.83L31.72-1.83Q31.68 0.04 29.08 0.11L29.08 0.11Q27.65 0.11 27.06-0.48L27.06-0.48Q26.33-1.03 26.37-2.16L26.37-2.16L27.25-2.16Q27.28-0.62 29.08-0.59L29.08-0.59Q30.84-0.62 30.87-1.72L30.87-1.72Q31.02-2.64 29.41-2.93L29.41-2.93L28.02-3.22Q26.59-3.63 26.59-4.83L26.59-4.83Q26.70-6.81 28.93-6.89L28.93-6.89Q31.46-6.89 31.53-4.76ZM33.77-3.96L37.28-3.96L37.28-6.70L38.20-6.70L38.20 0L37.28 0L37.28-3.11L33.77-3.11L33.77 0L32.85 0L32.85-6.70L33.77-6.70L33.77-3.96ZM44.02 0L43.36-1.94L40.65-1.94L39.96 0L39.04 0L41.57-6.70L42.59-6.70L45.01 0L44.02 0ZM42.01-5.71L40.94-2.75L43.03-2.75L42.04-5.71L42.01-5.71ZM46.91-6.70L50.28-1.28L50.28-6.70L51.16-6.70L51.16 0L50.14 0L46.73-5.42L46.69-5.42L46.69 0L45.81 0L45.81-6.70L46.91-6.70ZM59.58 0L58.93-1.94L56.22-1.94L55.52 0L54.60 0L57.13-6.70L58.16-6.70L60.57 0L59.58 0ZM57.57-5.71L56.51-2.75L58.60-2.75L57.61-5.71L57.57-5.71ZM66.29-4.76L66.29-4.76L65.44-4.76Q65.37-6.04 63.76-6.12L63.76-6.12Q62.26-6.08 62.26-4.94L62.26-4.94Q62.26-4.21 63.06-4.10L63.06-4.10L64.97-3.66Q66.47-3.30 66.47-1.83L66.47-1.83Q66.43 0.04 63.83 0.11L63.83 0.11Q62.40 0.11 61.82-0.48L61.82-0.48Q61.09-1.03 61.12-2.16L61.12-2.16L62.00-2.16Q62.04-0.62 63.83-0.59L63.83-0.59Q65.59-0.62 65.63-1.72L65.63-1.72Q65.77-2.64 64.16-2.93L64.16-2.93L62.77-3.22Q61.34-3.63 61.34-4.83L61.34-4.83Q61.45-6.81 63.69-6.89L63.69-6.89Q66.21-6.89 66.29-4.76ZM72.51-4.76L72.51-4.76L71.67-4.76Q71.60-6.04 69.99-6.12L69.99-6.12Q68.48-6.08 68.48-4.94L68.48-4.94Q68.48-4.21 69.29-4.10L69.29-4.10L71.19-3.66Q72.70-3.30 72.70-1.83L72.70-1.83Q72.66 0.04 70.06 0.11L70.06 0.11Q68.63 0.11 68.04-0.48L68.04-0.48Q67.31-1.03 67.35-2.16L67.35-2.16L68.23-2.16Q68.26-0.62 70.06-0.59L70.06-0.59Q71.82-0.62 71.85-1.72L71.85-1.72Q72-2.64 70.39-2.93L70.39-2.93L69.00-3.22Q67.57-3.63 67.57-4.83L67.57-4.83Q67.68-6.81 69.91-6.89L69.91-6.89Q72.44-6.89 72.51-4.76ZM73.98-6.70L74.89-6.70L74.89 0L73.98 0L73.98-6.70ZM81.34-4.76L81.34-4.76L80.50-4.76Q80.42-6.04 78.81-6.12L78.81-6.12Q77.31-6.08 77.31-4.94L77.31-4.94Q77.31-4.21 78.12-4.10L78.12-4.10L80.02-3.66Q81.52-3.30 81.52-1.83L81.52-1.83Q81.49 0.04 78.89 0.11L78.89 0.11Q77.46 0.11 76.87-0.48L76.87-0.48Q76.14-1.03 76.17-2.16L76.17-2.16L77.05-2.16Q77.09-0.62 78.89-0.59L78.89-0.59Q80.64-0.62 80.68-1.72L80.68-1.72Q80.83-2.64 79.21-2.93L79.21-2.93L77.82-3.22Q76.39-3.63 76.39-4.83L76.39-4.83Q76.50-6.81 78.74-6.89L78.74-6.89Q81.27-6.89 81.34-4.76ZM84.38-5.93L82.11-5.93L82.11-6.70L87.53-6.70L87.53-5.93L85.26-5.93L85.26 0L84.38 0L84.38-5.93ZM92.77 0L92.11-1.94L89.40-1.94L88.70 0L87.78 0L90.31-6.70L91.34-6.70L93.75 0L92.77 0ZM90.75-5.71L89.69-2.75L91.78-2.75L90.79-5.71L90.75-5.71ZM95.66-6.70L99.03-1.28L99.03-6.70L99.91-6.70L99.91 0L98.88 0L95.48-5.42L95.44-5.42L95.44 0L94.56 0L94.56-6.70L95.66-6.70ZM106.90-4.72L106.90-4.72L106.02-4.72Q105.69-6.08 104.15-6.12L104.15-6.12Q102.03-6.01 101.96-3.41L101.96-3.41Q101.96-0.62 104.19-0.62L104.19-0.62Q105.73-0.66 106.10-2.49L106.10-2.49L106.97-2.49Q106.57 0.04 104.01 0.11L104.01 0.11Q101.08 0 101.01-3.37L101.01-3.37Q101.15-6.74 104.15-6.89L104.15-6.89Q106.54-6.81 106.90-4.72ZM109.06-0.81L113.09-0.81L113.09 0L108.15 0L108.15-6.70L113.02-6.70L113.02-5.93L109.06-5.93L109.06-3.85L112.72-3.85L112.72-3.04L109.06-3.04L109.06-0.81ZM121.29 0L120.63-1.94L117.92-1.94L117.23 0L116.31 0L118.84-6.70L119.87-6.70L122.28 0L121.29 0ZM119.28-5.71L118.22-2.75L120.31-2.75L119.32-5.71L119.28-5.71ZM128.00-4.76L128.00-4.76L127.15-4.76Q127.08-6.04 125.47-6.12L125.47-6.12Q123.97-6.08 123.97-4.94L123.97-4.94Q123.97-4.21 124.77-4.10L124.77-4.10L126.68-3.66Q128.18-3.30 128.18-1.83L128.18-1.83Q128.14 0.04 125.54 0.11L125.54 0.11Q124.11 0.11 123.53-0.48L123.53-0.48Q122.80-1.03 122.83-2.16L122.83-2.16L123.71-2.16Q123.75-0.62 125.54-0.59L125.54-0.59Q127.30-0.62 127.34-1.72L127.34-1.72Q127.48-2.64 125.87-2.93L125.87-2.93L124.48-3.22Q123.05-3.63 123.05-4.83L123.05-4.83Q123.16-6.81 125.40-6.89L125.40-6.89Q127.92-6.89 128.00-4.76ZM134.22-4.76L134.22-4.76L133.38-4.76Q133.31-6.04 131.69-6.12L131.69-6.12Q130.19-6.08 130.19-4.94L130.19-4.94Q130.19-4.21 131.00-4.10L131.00-4.10L132.90-3.66Q134.40-3.30 134.40-1.83L134.40-1.83Q134.37 0.04 131.77 0.11L131.77 0.11Q130.34 0.11 129.75-0.48L129.75-0.48Q129.02-1.03 129.06-2.16L129.06-2.16L129.94-2.16Q129.97-0.62 131.77-0.59L131.77-0.59Q133.53-0.62 133.56-1.72L133.56-1.72Q133.71-2.64 132.10-2.93L132.10-2.93L130.71-3.22Q129.28-3.63 129.28-4.83L129.28-4.83Q129.39-6.81 131.62-6.89L131.62-6.89Q134.15-6.89 134.22-4.76ZM140.85-3.33L140.85-3.33Q140.70-5.97 138.51-6.12L138.51-6.12Q136.27-6.01 136.16-3.33L136.16-3.33Q136.27-0.73 138.51-0.62L138.51-0.62Q140.70-0.77 140.85-3.33ZM141.77-3.33L141.77-3.33Q141.55 0 138.51 0.11L138.51 0.11Q135.43 0 135.21-3.33L135.21-3.33Q135.39-6.81 138.51-6.89L138.51-6.89Q141.55-6.78 141.77-3.33ZM148.43-4.72L148.43-4.72L147.55-4.72Q147.22-6.08 145.68-6.12L145.68-6.12Q143.56-6.01 143.49-3.41L143.49-3.41Q143.49-0.62 145.72-0.62L145.72-0.62Q147.26-0.66 147.63-2.49L147.63-2.49L148.50-2.49Q148.10 0.04 145.54 0.11L145.54 0.11Q142.61 0 142.54-3.37L142.54-3.37Q142.68-6.74 145.68-6.89L145.68-6.89Q148.07-6.81 148.43-4.72ZM149.71-6.70L150.63-6.70L150.63 0L149.71 0L149.71-6.70ZM156.60 0L155.94-1.94L153.23-1.94L152.53 0L151.62 0L154.14-6.70L155.17-6.70L157.59 0L156.60 0ZM154.58-5.71L153.52-2.75L155.61-2.75L154.62-5.71L154.58-5.71ZM160.11-5.93L157.84-5.93L157.84-6.70L163.26-6.70L163.26-5.93L160.99-5.93L160.99 0L160.11 0L160.11-5.93ZM164.22-6.70L165.13-6.70L165.13 0L164.22 0L164.22-6.70ZM171.98-3.33L171.98-3.33Q171.83-5.97 169.64-6.12L169.64-6.12Q167.40-6.01 167.29-3.33L167.29-3.33Q167.40-0.73 169.64-0.62L169.64-0.62Q171.83-0.77 171.98-3.33ZM172.90-3.33L172.90-3.33Q172.68 0 169.64 0.11L169.64 0.11Q166.56 0 166.34-3.33L166.34-3.33Q166.52-6.81 169.64-6.89L169.64-6.89Q172.68-6.78 172.90-3.33ZM175.06-6.70L178.43-1.28L178.43-6.70L179.30-6.70L179.30 0L178.28 0L174.87-5.42L174.84-5.42L174.84 0L173.96 0L173.96-6.70L175.06-6.70Z" transform="translate(-0.14649033570701933, 6.885045778229909)"></path></g></g></g></g></g><defs v-gra="od"></defs></svg>